<svg width="75" height="75" viewBox="0 0 75 75" fill="none" xmlns="http://www.w3.org/2000/svg">
<path d="M44.3712 37.4998L73.5747 8.2954C75.4752 6.39578 75.4752 3.32434 73.5747 1.42472C71.6751 -0.474906 68.6036 -0.474906 66.704 1.42472L37.4996 30.6291L8.29607 1.42472C6.39556 -0.474906 3.32501 -0.474906 1.42539 1.42472C-0.475129 3.32434 -0.475129 6.39578 1.42539 8.2954L30.6289 37.4998L1.42539 66.7042C-0.475129 68.6038 -0.475129 71.6753 1.42539 73.5749C2.37209 74.5225 3.61685 74.9985 4.86073 74.9985C6.10461 74.9985 7.34848 74.5225 8.29607 73.5749L37.4996 44.3705L66.704 73.5749C67.6516 74.5225 68.8955 74.9985 70.1394 74.9985C71.3832 74.9985 72.6271 74.5225 73.5747 73.5749C75.4752 71.6753 75.4752 68.6038 73.5747 66.7042L44.3712 37.4998Z" fill="#FFFBEB"/>
</svg>
