<svg width="133" height="133" viewBox="0 0 133 133" fill="none" xmlns="http://www.w3.org/2000/svg">
<g clip-path="url(#clip0)">
<path d="M104.595 130.402L121.721 100.956C127.386 91.2182 130.37 80.1538 130.37 68.8875V35.189C130.37 31.0774 127.037 27.7451 122.926 27.7451C118.814 27.7451 115.482 31.0774 115.482 35.189V59.329C115.482 67.1919 112.511 74.7637 107.163 80.5283L93.6912 95.6606L107.163 80.5283C109.973 77.3725 109.408 72.4735 105.954 70.0402C103.159 68.0717 99.3563 68.3832 96.919 70.78L83.2944 84.1802C78.8531 88.5485 76.3518 94.5171 76.3518 100.746V130.207L104.595 130.402Z" fill="#FFFDE8"/>
<path d="M28.3713 130.402L11.245 100.956C5.5809 91.2182 2.59766 80.1538 2.59766 68.8875V35.189C2.59766 31.0774 5.92996 27.7451 10.0416 27.7451C14.1522 27.7451 17.4845 31.0774 17.4845 35.189V59.329C17.4845 67.1919 20.4565 74.7637 25.803 80.5283L39.2753 95.6606L25.803 80.5283C22.9933 77.3725 23.5585 72.4735 27.0126 70.0402C29.8081 68.0717 33.6102 68.3832 36.0486 70.78L49.6721 84.1802C54.1134 88.5485 56.6147 94.5171 56.6147 100.746V130.207" fill="#FFFDE8"/>
<path d="M98.443 34.557C98.443 52.2079 84.1346 66.5163 66.4837 66.5163C48.8329 66.5163 34.5234 52.2079 34.5234 34.557C34.5234 16.9061 48.8329 2.59668 66.4837 2.59668C84.1346 2.59668 98.443 16.9061 98.443 34.557Z" fill="#FFE171"/>
<path d="M122.926 25.1475C117.39 25.1475 112.885 29.6518 112.885 35.189V59.329C112.885 63.4517 112.004 67.4659 110.335 71.1392C109.635 69.8748 108.656 68.7668 107.45 67.9175C103.626 65.2244 98.4318 65.6496 95.0975 68.9291L81.473 82.3294C76.5679 87.1543 73.7551 93.8666 73.7551 100.747V130.207C73.7551 131.641 74.918 132.804 76.3518 132.804C77.7856 132.804 78.9494 131.641 78.9494 130.207V100.746C78.9494 95.2497 81.196 89.8869 85.1158 86.0321L98.7393 72.6318C100.283 71.1128 102.688 70.917 104.458 72.163C105.516 72.9088 106.179 74.026 106.327 75.3117C106.475 76.5963 106.084 77.8363 105.223 78.8023L91.751 93.9336C90.7972 95.0051 90.8926 96.6459 91.9641 97.5998C93.0356 98.5536 94.6764 98.4582 95.6302 97.3877L109.103 82.2563C109.104 82.2543 109.105 82.2533 109.106 82.2523C114.892 75.9925 118.079 67.8546 118.079 59.329V35.189C118.079 32.5163 120.253 30.3418 122.925 30.3418C125.598 30.3418 127.772 32.5163 127.772 35.189V68.8875C127.772 79.682 124.904 90.3202 119.476 99.6515L107.574 120.115C106.853 121.355 107.274 122.944 108.514 123.666C108.924 123.904 109.373 124.018 109.817 124.018C110.712 124.018 111.582 123.555 112.064 122.726L123.966 102.262C129.854 92.1396 132.966 80.5993 132.966 68.8875V35.189C132.966 29.6518 128.462 25.1475 122.926 25.1475Z" fill="black"/>
<path d="M104.594 127.805C103.911 127.805 103.244 128.083 102.759 128.566C102.276 129.049 101.998 129.719 101.998 130.402C101.998 131.087 102.275 131.755 102.759 132.238C103.242 132.724 103.911 132.999 104.594 132.999C105.28 132.999 105.948 132.724 106.43 132.238C106.916 131.755 107.192 131.085 107.192 130.402C107.192 129.719 106.916 129.049 106.43 128.566C105.948 128.083 105.277 127.805 104.594 127.805Z" fill="black"/>
<path d="M37.87 68.9291C34.5356 65.6496 29.3403 65.2234 25.5169 67.9175C24.3114 68.7668 23.3322 69.8738 22.6311 71.1382C20.9639 67.4659 20.0821 63.4507 20.0821 59.329V35.188C20.0821 29.6518 15.5778 25.1475 10.0416 25.1475C4.5043 25.1475 0 29.6518 0 35.189V42.7202C0 44.155 1.16286 45.3179 2.59664 45.3179C4.03144 45.3179 5.1943 44.155 5.1943 42.7202V35.189C5.1943 32.5163 7.36781 30.3418 10.0406 30.3418C12.7133 30.3418 14.8878 32.5163 14.8878 35.189V59.329C14.8878 67.8546 18.074 75.9925 23.8599 82.2523C23.8609 82.2533 23.8629 82.2543 23.8639 82.2563L37.3362 97.3877C38.289 98.4582 39.9308 98.5536 41.0024 97.5998C42.0739 96.6459 42.1693 95.0051 41.2155 93.9336L27.7432 78.8023C26.8827 77.8363 26.49 76.5963 26.6392 75.3117C26.7873 74.026 27.4509 72.9088 28.5083 72.164C30.2779 70.917 32.6828 71.1138 34.2272 72.6318L47.8507 86.0321C51.7695 89.8869 54.017 95.2497 54.017 100.747V130.207C54.017 131.641 55.1799 132.804 56.6147 132.804C58.0485 132.804 59.2113 131.641 59.2113 130.207V100.746C59.2113 93.8666 56.3986 87.1533 51.4924 82.3284L37.87 68.9291Z" fill="black"/>
<path d="M2.59664 55.7065C3.27954 55.7065 3.95026 55.4285 4.43327 54.9455C4.91627 54.4625 5.1943 53.7928 5.1943 53.1099C5.1943 52.4239 4.91627 51.7562 4.43327 51.2732C3.95026 50.7882 3.27954 50.5122 2.59664 50.5122C1.91374 50.5122 1.24403 50.7882 0.761032 51.2732C0.27803 51.7562 0 52.4239 0 53.1099C0 53.7928 0.27803 54.4625 0.761032 54.9455C1.24403 55.4285 1.91374 55.7065 2.59664 55.7065Z" fill="black"/>
<path d="M13.4906 99.6506C8.06288 90.3204 5.1943 79.6822 5.1943 68.8877V63.4965C5.1943 62.0628 4.03144 60.8999 2.59766 60.8999C1.16286 60.8999 0 62.0628 0 63.4965V68.8877C0 80.5985 3.11211 92.1398 9.00047 102.263L26.1267 131.708C26.6087 132.537 27.4793 133 28.3743 133C28.8167 133 29.2663 132.886 29.6772 132.648C30.9172 131.927 31.3373 130.337 30.6168 129.098L13.4906 99.6506Z" fill="black"/>
<path d="M101.04 34.5569C101.04 15.5017 85.5379 0 66.4837 0C47.4285 0 31.9268 15.5017 31.9268 34.5569C31.9268 53.6112 47.4285 69.1129 66.4837 69.1129C85.5379 69.1129 101.04 53.6112 101.04 34.5569ZM66.4837 63.9196C50.293 63.9196 37.1211 50.7477 37.1211 34.5569C37.1211 18.3662 50.293 5.1943 66.4837 5.1943C82.6744 5.1943 95.8464 18.3662 95.8464 34.5569C95.8464 50.7466 82.6744 63.9196 66.4837 63.9196Z" fill="black"/>
<path d="M58.7902 31.0124C60.224 31.0124 61.3868 29.8495 61.3868 28.4147C61.3868 25.4903 59.0083 23.1108 56.0829 23.1108C53.1585 23.1108 50.7791 25.4903 50.7791 28.4147C50.7791 29.8495 51.9419 31.0124 53.3757 31.0124C54.8095 31.0124 55.9723 29.8495 55.9723 28.4147C55.9723 28.3538 56.0221 28.3041 56.0829 28.3041C56.1438 28.3041 56.1935 28.3538 56.1935 28.4147C56.1935 29.8495 57.3564 31.0124 58.7902 31.0124Z" fill="black"/>
<path d="M77.7856 23.1108C74.8612 23.1108 72.4817 25.4903 72.4817 28.4147C72.4817 29.8495 73.6445 31.0124 75.0783 31.0124C76.5131 31.0124 77.676 29.8495 77.676 28.4147C77.676 28.3538 77.7247 28.3041 77.7856 28.3041C77.8465 28.3041 77.8962 28.3538 77.8962 28.4147C77.8962 29.8495 79.059 31.0124 80.4928 31.0124C81.9276 31.0124 83.0905 29.8495 83.0905 28.4147C83.0905 25.4903 80.711 23.1108 77.7856 23.1108Z" fill="black"/>
<path d="M74.7719 39.3291C73.3381 39.3291 72.1753 40.492 72.1753 41.9268C72.1753 44.8167 69.8242 47.1677 66.9343 47.1677C64.0444 47.1677 61.6933 44.8167 61.6933 41.9268C61.6933 40.492 60.5305 39.3291 59.0967 39.3291C57.6619 39.3291 56.499 40.492 56.499 41.9268C56.499 47.6802 61.1809 52.361 66.9343 52.361C72.6887 52.361 77.3696 47.6802 77.3696 41.9268C77.3696 40.492 76.2067 39.3291 74.7719 39.3291Z" fill="black"/>
</g>
<defs>
<clipPath id="clip0">
<rect width="133" height="133" fill="white"/>
</clipPath>
</defs>
</svg>
