<svg width="112" height="84" viewBox="0 0 112 84" fill="none" xmlns="http://www.w3.org/2000/svg">
<path d="M97.1344 0.920476L4.77489 14.3659C1.87196 14.7885 -0.1572 17.5092 0.265373 20.4119L8.71685 78.4667C9.13939 81.3692 11.8601 83.3988 14.763 82.9762L107.123 69.5307C110.025 69.1082 112.055 66.3875 111.632 63.4846L103.181 5.42973C102.758 2.52703 100.037 0.497874 97.1344 0.920476ZM95.7301 5.16681L59.0616 42.0342C58.4034 42.7052 57.3187 43.2229 56.1579 43.3866C54.9988 43.5606 53.8117 43.3736 52.9894 42.9182L7.3314 18.0357L95.7301 5.16681ZM78.5333 41.2799L104.997 65.7227C105.024 65.7472 105.054 65.7643 105.082 65.7859L15.6511 78.805C15.671 78.7752 15.6959 78.7513 15.7143 78.7203L34.1109 47.7468C34.6745 46.7971 34.3629 45.5705 33.4114 45.0055C32.4617 44.442 31.235 44.7536 30.6713 45.7035L12.4544 76.3745L4.39164 20.99L51.0766 46.43C52.8303 47.378 54.8306 47.6164 56.7339 47.3446C58.6332 47.064 60.4842 46.265 61.8956 44.855L99.3896 7.16049L107.452 62.5445L81.2475 38.3407C80.4363 37.5912 79.1705 37.642 78.4221 38.453C77.6711 39.2641 77.722 40.5304 78.5333 41.2799Z" fill="#FFD94D"/>
</svg>
