<svg xmlns="http://www.w3.org/2000/svg" width="136" height="136" fill="none" viewBox="0 0 136 136"><path fill="#FFE171" d="M68 36.125C85.5764 36.125 99.875 50.4236 99.875 68C99.875 85.5764 85.5764 99.875 68 99.875C50.4236 99.875 36.125 85.5764 36.125 68C36.125 50.4236 50.4236 36.125 68 36.125Z"/><path fill="#000" d="M75.9688 54.7188C77.4358 54.7188 78.625 53.5295 78.625 52.0625C78.625 50.5955 77.4358 49.4062 75.9688 49.4062C74.5017 49.4062 73.3125 50.5955 73.3125 52.0625C73.3125 53.5295 74.5017 54.7188 75.9688 54.7188Z"/><path fill="#000" d="M60.0312 54.7188C61.4983 54.7188 62.6875 53.5295 62.6875 52.0625C62.6875 50.5955 61.4983 49.4062 60.0312 49.4062C58.5642 49.4062 57.375 50.5955 57.375 52.0625C57.375 53.5295 58.5642 54.7188 60.0312 54.7188Z"/><path fill="#000" d="M103.687 99.9301C102.65 98.8931 100.968 98.8931 99.9305 99.9301C98.8933 100.967 98.8933 102.649 99.9305 103.687L111.201 114.957C112.239 115.995 113.92 115.994 114.957 114.957C115.995 113.92 115.995 112.238 114.957 111.201L103.687 99.9301Z"/><path fill="#000" d="M24.7991 21.0424C23.7618 20.0054 22.0799 20.0054 21.0426 21.0424C20.0053 22.0797 20.0053 23.7616 21.0426 24.7991L32.3131 36.0696C33.3506 37.1069 35.0323 37.1066 36.0695 36.0696C37.1068 35.0323 37.1068 33.3504 36.0695 32.3129L24.7991 21.0424Z"/><path fill="#000" d="M36.0696 99.9305C35.0324 98.8937 33.3504 98.8935 32.3132 99.9305L21.0427 111.201C20.0054 112.238 20.0052 113.92 21.0427 114.958C22.0802 115.995 23.7619 115.995 24.7992 114.958L36.0696 103.687C37.1066 102.65 37.1066 100.968 36.0696 99.9305Z"/><path fill="#000" d="M111.201 21.0425L99.9305 32.313C98.8933 33.3502 98.8933 35.0322 99.9305 36.0697C100.968 37.107 102.65 37.107 103.687 36.0697L114.957 24.7992C115.995 23.762 115.995 22.08 114.957 21.0425C113.92 20.0055 112.238 20.0052 111.201 21.0425Z"/><path fill="#000" d="M86.8915 120.55C87.4514 121.901 89.0027 122.551 90.3622 121.987C91.7174 121.426 92.361 119.872 91.7995 118.517L88.7501 111.157C88.1886 109.801 86.6346 109.157 85.2794 109.719C83.9242 110.281 83.2806 111.835 83.8421 113.19L86.8915 120.55Z"/><path fill="#000" d="M50.7206 26.2804C52.0758 25.7191 52.7194 24.1649 52.1579 22.81L49.1085 15.4495C48.5469 14.094 46.9936 13.4504 45.6378 14.0122C44.2826 14.5735 43.639 16.1276 44.2005 17.4826L47.2499 24.8431C47.8096 26.1946 49.3608 26.8437 50.7206 26.2804Z"/><path fill="#000" d="M26.2805 85.2799C25.7189 83.9241 24.1653 83.2813 22.8098 83.8426L15.4493 86.8919C14.0941 87.4532 13.4505 89.0074 14.0121 90.3623C14.5717 91.7136 16.123 92.363 17.4827 91.7996L24.8432 88.7503C26.1987 88.189 26.8423 86.6348 26.2805 85.2799Z"/><path fill="#000" d="M109.719 50.7203C110.279 52.0715 111.83 52.7209 113.19 52.1576L120.551 49.1082C121.906 48.5469 122.549 46.9927 121.988 45.6378C121.426 44.282 119.872 43.6392 118.517 44.2005L111.157 47.2499C109.801 47.8111 109.158 49.3653 109.719 50.7203Z"/><path fill="#000" d="M47.2497 111.157L44.2003 118.517C43.6388 119.872 44.2824 121.426 45.6376 121.988C47.0032 122.553 48.5507 121.896 49.1082 120.55L52.1576 113.19C52.7191 111.835 52.0755 110.281 50.7203 109.719C49.3654 109.158 47.8115 109.801 47.2497 111.157Z"/><path fill="#000" d="M88.7503 24.8433L91.7997 17.4828C92.3612 16.1276 91.7176 14.5737 90.3624 14.0124C89.0069 13.4511 87.4533 14.0947 86.8918 15.4497L83.8424 22.8102C83.2808 24.1654 83.9245 25.7193 85.2797 26.2805C86.6453 26.8463 88.1928 26.1889 88.7503 24.8433Z"/><path fill="#000" d="M14.0125 45.6378C13.451 46.993 14.0946 48.5469 15.4498 49.1081L22.8103 52.1575C24.1759 52.723 25.7234 52.0656 26.281 50.7202C26.8425 49.365 26.1989 47.8111 24.8437 47.2498L17.4832 44.2005C16.1282 43.6392 14.5741 44.2823 14.0125 45.6378Z"/><path fill="#000" d="M120.55 86.8919L113.19 83.8425C111.835 83.2812 110.281 83.9246 109.719 85.2798C109.158 86.635 109.801 88.1889 111.157 88.7502L118.517 91.7996C119.883 92.3651 121.43 91.7077 121.988 90.3623C122.549 89.0073 121.906 87.4531 120.55 86.8919Z"/><path fill="#000" d="M65.3438 115.812V133.344C65.3438 134.811 66.533 136 68 136C69.467 136 70.6562 134.811 70.6562 133.344V115.812C70.6562 114.346 69.467 113.156 68 113.156C66.533 113.156 65.3438 114.346 65.3438 115.812Z"/><path fill="#000" d="M70.6562 20.1875V2.65625C70.6562 1.18947 69.467 0 68 0C66.533 0 65.3438 1.18947 65.3438 2.65625V20.1875C65.3438 21.6543 66.533 22.8438 68 22.8438C69.467 22.8438 70.6562 21.6543 70.6562 20.1875Z"/><path fill="#000" d="M22.8438 68C22.8438 66.5332 21.6545 65.3438 20.1875 65.3438H2.65625C1.1892 65.3438 0 66.5332 0 68C0 69.4668 1.1892 70.6562 2.65625 70.6562H20.1875C21.6545 70.6562 22.8438 69.4668 22.8438 68Z"/><path fill="#000" d="M133.344 65.3438H115.812C114.345 65.3438 113.156 66.5332 113.156 68C113.156 69.4668 114.345 70.6562 115.812 70.6562H133.344C134.811 70.6562 136 69.4668 136 68C136 66.5332 134.811 65.3438 133.344 65.3438Z"/><path fill="#000" d="M52.0625 65.3438C50.5955 65.3438 49.4062 66.5332 49.4062 68C49.4062 78.2526 57.7474 86.5938 68 86.5938C78.2526 86.5938 86.5938 78.2526 86.5938 68C86.5938 66.5332 85.4045 65.3438 83.9375 65.3438C82.4705 65.3438 81.2812 66.5332 81.2812 68C81.2812 75.3233 75.3233 81.2812 68 81.2812C60.6767 81.2812 54.7188 75.3233 54.7188 68C54.7188 66.5332 53.5295 65.3438 52.0625 65.3438Z"/><path fill="#000" d="M90.5781 93.2344C92.0451 93.2344 93.2344 92.0451 93.2344 90.5781C93.2344 89.1111 92.0451 87.9219 90.5781 87.9219C89.1111 87.9219 87.9219 89.1111 87.9219 90.5781C87.9219 92.0451 89.1111 93.2344 90.5781 93.2344Z"/><path fill="#000" d="M33.4688 68C33.4688 87.0408 48.9595 102.531 68 102.531C72.7635 102.531 77.3808 101.574 81.7238 99.6867C83.0692 99.102 83.686 97.5372 83.1013 96.1921C82.5167 94.8465 80.9519 94.2297 79.6065 94.8146C75.9356 96.4099 72.0306 97.2188 68 97.2188C51.8888 97.2188 38.7812 84.1112 38.7812 68C38.7812 51.8888 51.8888 38.7812 68 38.7812C84.1112 38.7812 97.2188 51.8888 97.2188 68C97.2188 72.0306 96.4099 75.9355 94.8143 79.6062C94.2297 80.9516 94.8462 82.5164 96.1918 83.1011C97.5372 83.6865 99.102 83.0692 99.6867 81.7238C101.574 77.3808 102.531 72.7637 102.531 68C102.531 48.9592 87.0405 33.4688 68 33.4688C48.9595 33.4688 33.4688 48.9592 33.4688 68Z"/></svg>